<mxfile host="app.diagrams.net" modified="2023-06-02T15:08:10.755Z" agent="Mozilla/5.0 (Windows NT 10.0; Win64; x64) AppleWebKit/537.36 (KHTML, like Gecko) Chrome/114.0.0.0 Safari/537.36" etag="h2C6oKq-EdWO_dcOrVeI" version="21.3.7" type="device">
  <diagram name="Seite-1" id="HyDzZptrNdz-46u0eHA2">
    <mxGraphModel dx="474" dy="706" grid="1" gridSize="10" guides="1" tooltips="1" connect="1" arrows="1" fold="1" page="1" pageScale="1" pageWidth="827" pageHeight="1169" math="0" shadow="0">
      <root>
        <mxCell id="0" />
        <mxCell id="1" parent="0" />
        <mxCell id="_EKNZaw4cx3jQ3m07s7c-53" value="&amp;lt;&amp;lt;JS entity table&amp;gt;&amp;gt;&lt;br&gt;&lt;b&gt;movies&lt;/b&gt;" style="swimlane;fontStyle=0;childLayout=stackLayout;horizontal=1;startSize=40;fillColor=none;horizontalStack=0;resizeParent=1;resizeParentMax=0;resizeLast=0;collapsible=1;marginBottom=0;whiteSpace=wrap;html=1;" parent="1" vertex="1">
          <mxGeometry x="110" y="540" width="200" height="274" as="geometry" />
        </mxCell>
        <mxCell id="_EKNZaw4cx3jQ3m07s7c-6" value="movieId[1] : number {pkey}" style="text;strokeColor=none;fillColor=none;align=left;verticalAlign=top;spacingLeft=4;spacingRight=4;overflow=hidden;rotatable=0;points=[[0,0.5],[1,0.5]];portConstraint=eastwest;" parent="_EKNZaw4cx3jQ3m07s7c-53" vertex="1">
          <mxGeometry y="40" width="200" height="26" as="geometry" />
        </mxCell>
        <mxCell id="_EKNZaw4cx3jQ3m07s7c-7" value="title[1] : string" style="text;strokeColor=none;fillColor=none;align=left;verticalAlign=top;spacingLeft=4;spacingRight=4;overflow=hidden;rotatable=0;points=[[0,0.5],[1,0.5]];portConstraint=eastwest;" parent="_EKNZaw4cx3jQ3m07s7c-53" vertex="1">
          <mxGeometry y="66" width="200" height="26" as="geometry" />
        </mxCell>
        <mxCell id="_EKNZaw4cx3jQ3m07s7c-8" value="releaseDate[1] : string" style="text;strokeColor=none;fillColor=none;align=left;verticalAlign=top;spacingLeft=4;spacingRight=4;overflow=hidden;rotatable=0;points=[[0,0.5],[1,0.5]];portConstraint=eastwest;" parent="_EKNZaw4cx3jQ3m07s7c-53" vertex="1">
          <mxGeometry y="92" width="200" height="26" as="geometry" />
        </mxCell>
        <mxCell id="_EKNZaw4cx3jQ3m07s7c-9" value="director[1] : Director" style="text;strokeColor=none;fillColor=none;align=left;verticalAlign=top;spacingLeft=4;spacingRight=4;overflow=hidden;rotatable=0;points=[[0,0.5],[1,0.5]];portConstraint=eastwest;" parent="_EKNZaw4cx3jQ3m07s7c-53" vertex="1">
          <mxGeometry y="118" width="200" height="26" as="geometry" />
        </mxCell>
        <mxCell id="_EKNZaw4cx3jQ3m07s7c-10" value="actors[*] : Actor" style="text;strokeColor=none;fillColor=none;align=left;verticalAlign=top;spacingLeft=4;spacingRight=4;overflow=hidden;rotatable=0;points=[[0,0.5],[1,0.5]];portConstraint=eastwest;" parent="_EKNZaw4cx3jQ3m07s7c-53" vertex="1">
          <mxGeometry y="144" width="200" height="26" as="geometry" />
        </mxCell>
        <mxCell id="_EKNZaw4cx3jQ3m07s7c-114" value="category[0..1] : number {1, 2}" style="text;strokeColor=none;fillColor=none;align=left;verticalAlign=top;spacingLeft=4;spacingRight=4;overflow=hidden;rotatable=0;points=[[0,0.5],[1,0.5]];portConstraint=eastwest;" parent="_EKNZaw4cx3jQ3m07s7c-53" vertex="1">
          <mxGeometry y="170" width="200" height="26" as="geometry" />
        </mxCell>
        <mxCell id="_EKNZaw4cx3jQ3m07s7c-115" value="about[0..1] : Person" style="text;strokeColor=none;fillColor=none;align=left;verticalAlign=top;spacingLeft=4;spacingRight=4;overflow=hidden;rotatable=0;points=[[0,0.5],[1,0.5]];portConstraint=eastwest;" parent="_EKNZaw4cx3jQ3m07s7c-53" vertex="1">
          <mxGeometry y="196" width="200" height="26" as="geometry" />
        </mxCell>
        <mxCell id="_EKNZaw4cx3jQ3m07s7c-116" value="tvSeriesName[0..1] : string" style="text;strokeColor=none;fillColor=none;align=left;verticalAlign=top;spacingLeft=4;spacingRight=4;overflow=hidden;rotatable=0;points=[[0,0.5],[1,0.5]];portConstraint=eastwest;" parent="_EKNZaw4cx3jQ3m07s7c-53" vertex="1">
          <mxGeometry y="222" width="200" height="26" as="geometry" />
        </mxCell>
        <mxCell id="_EKNZaw4cx3jQ3m07s7c-117" value="episodeNo[0..1] : number" style="text;strokeColor=none;fillColor=none;align=left;verticalAlign=top;spacingLeft=4;spacingRight=4;overflow=hidden;rotatable=0;points=[[0,0.5],[1,0.5]];portConstraint=eastwest;" parent="_EKNZaw4cx3jQ3m07s7c-53" vertex="1">
          <mxGeometry y="248" width="200" height="26" as="geometry" />
        </mxCell>
        <mxCell id="_EKNZaw4cx3jQ3m07s7c-97" value="&amp;lt;&amp;lt;JS entity table&amp;gt;&amp;gt;&lt;br&gt;&lt;b&gt;persons&lt;/b&gt;" style="swimlane;fontStyle=0;childLayout=stackLayout;horizontal=1;startSize=40;fillColor=none;horizontalStack=0;resizeParent=1;resizeParentMax=0;resizeLast=0;collapsible=1;marginBottom=0;whiteSpace=wrap;html=1;" parent="1" vertex="1">
          <mxGeometry x="190" y="240" width="200" height="92" as="geometry" />
        </mxCell>
        <mxCell id="_EKNZaw4cx3jQ3m07s7c-12" value="personid[1] : number {pkey}" style="text;strokeColor=none;fillColor=none;align=left;verticalAlign=top;spacingLeft=4;spacingRight=4;overflow=hidden;rotatable=0;points=[[0,0.5],[1,0.5]];portConstraint=eastwest;" parent="_EKNZaw4cx3jQ3m07s7c-97" vertex="1">
          <mxGeometry y="40" width="200" height="26" as="geometry" />
        </mxCell>
        <mxCell id="_EKNZaw4cx3jQ3m07s7c-13" value="name[1] : string" style="text;strokeColor=none;fillColor=none;align=left;verticalAlign=top;spacingLeft=4;spacingRight=4;overflow=hidden;rotatable=0;points=[[0,0.5],[1,0.5]];portConstraint=eastwest;" parent="_EKNZaw4cx3jQ3m07s7c-97" vertex="1">
          <mxGeometry y="66" width="200" height="26" as="geometry" />
        </mxCell>
        <mxCell id="_EKNZaw4cx3jQ3m07s7c-103" value="&amp;lt;&amp;lt;JS entity table&amp;gt;&amp;gt;&lt;br&gt;&lt;b&gt;directors&lt;/b&gt;" style="swimlane;fontStyle=0;childLayout=stackLayout;horizontal=1;startSize=40;fillColor=none;horizontalStack=0;resizeParent=1;resizeParentMax=0;resizeLast=0;collapsible=1;marginBottom=0;whiteSpace=wrap;html=1;" parent="1" vertex="1">
          <mxGeometry x="70" y="367" width="200" height="118" as="geometry" />
        </mxCell>
        <mxCell id="_EKNZaw4cx3jQ3m07s7c-119" value="personid[1] : number {pkey}" style="text;strokeColor=none;fillColor=none;align=left;verticalAlign=top;spacingLeft=4;spacingRight=4;overflow=hidden;rotatable=0;points=[[0,0.5],[1,0.5]];portConstraint=eastwest;" parent="_EKNZaw4cx3jQ3m07s7c-103" vertex="1">
          <mxGeometry y="40" width="200" height="26" as="geometry" />
        </mxCell>
        <mxCell id="_EKNZaw4cx3jQ3m07s7c-120" value="name[1] : string" style="text;strokeColor=none;fillColor=none;align=left;verticalAlign=top;spacingLeft=4;spacingRight=4;overflow=hidden;rotatable=0;points=[[0,0.5],[1,0.5]];portConstraint=eastwest;" parent="_EKNZaw4cx3jQ3m07s7c-103" vertex="1">
          <mxGeometry y="66" width="200" height="26" as="geometry" />
        </mxCell>
        <mxCell id="_EKNZaw4cx3jQ3m07s7c-106" value="directedMovies[*] : Movie" style="text;strokeColor=none;fillColor=none;align=left;verticalAlign=top;spacingLeft=4;spacingRight=4;overflow=hidden;rotatable=0;points=[[0,0.5],[1,0.5]];portConstraint=eastwest;" parent="_EKNZaw4cx3jQ3m07s7c-103" vertex="1">
          <mxGeometry y="92" width="200" height="26" as="geometry" />
        </mxCell>
        <mxCell id="_EKNZaw4cx3jQ3m07s7c-108" value="&amp;lt;&amp;lt;JS entity table&amp;gt;&amp;gt;&lt;br&gt;&lt;b&gt;actors&lt;/b&gt;" style="swimlane;fontStyle=0;childLayout=stackLayout;horizontal=1;startSize=40;fillColor=none;horizontalStack=0;resizeParent=1;resizeParentMax=0;resizeLast=0;collapsible=1;marginBottom=0;whiteSpace=wrap;html=1;" parent="1" vertex="1">
          <mxGeometry x="300" y="367" width="200" height="144" as="geometry" />
        </mxCell>
        <mxCell id="_EKNZaw4cx3jQ3m07s7c-121" value="personid[1] : number {pkey}" style="text;strokeColor=none;fillColor=none;align=left;verticalAlign=top;spacingLeft=4;spacingRight=4;overflow=hidden;rotatable=0;points=[[0,0.5],[1,0.5]];portConstraint=eastwest;" parent="_EKNZaw4cx3jQ3m07s7c-108" vertex="1">
          <mxGeometry y="40" width="200" height="26" as="geometry" />
        </mxCell>
        <mxCell id="_EKNZaw4cx3jQ3m07s7c-122" value="name[1] : string" style="text;strokeColor=none;fillColor=none;align=left;verticalAlign=top;spacingLeft=4;spacingRight=4;overflow=hidden;rotatable=0;points=[[0,0.5],[1,0.5]];portConstraint=eastwest;" parent="_EKNZaw4cx3jQ3m07s7c-108" vertex="1">
          <mxGeometry y="66" width="200" height="26" as="geometry" />
        </mxCell>
        <mxCell id="_EKNZaw4cx3jQ3m07s7c-123" value="name[1] : string" style="text;strokeColor=none;fillColor=none;align=left;verticalAlign=top;spacingLeft=4;spacingRight=4;overflow=hidden;rotatable=0;points=[[0,0.5],[1,0.5]];portConstraint=eastwest;" parent="_EKNZaw4cx3jQ3m07s7c-108" vertex="1">
          <mxGeometry y="92" width="200" height="26" as="geometry" />
        </mxCell>
        <mxCell id="_EKNZaw4cx3jQ3m07s7c-112" value="agent[0..1] : Person" style="text;strokeColor=none;fillColor=none;align=left;verticalAlign=top;spacingLeft=4;spacingRight=4;overflow=hidden;rotatable=0;points=[[0,0.5],[1,0.5]];portConstraint=eastwest;" parent="_EKNZaw4cx3jQ3m07s7c-108" vertex="1">
          <mxGeometry y="118" width="200" height="26" as="geometry" />
        </mxCell>
        <mxCell id="_EKNZaw4cx3jQ3m07s7c-113" value="category:&lt;br&gt;1 = Biography&lt;br&gt;2 = TvSeriesEpisode" style="shape=note;size=20;whiteSpace=wrap;html=1;align=left;spacingLeft=4;" parent="1" vertex="1">
          <mxGeometry x="330" y="540" width="126" height="100" as="geometry" />
        </mxCell>
        <mxCell id="_EKNZaw4cx3jQ3m07s7c-118" value="" style="endArrow=none;dashed=1;html=1;rounded=0;entryX=0.5;entryY=1;entryDx=0;entryDy=0;entryPerimeter=0;exitX=1;exitY=0.5;exitDx=0;exitDy=0;dashPattern=12 12;" parent="1" source="_EKNZaw4cx3jQ3m07s7c-114" target="_EKNZaw4cx3jQ3m07s7c-113" edge="1">
          <mxGeometry width="50" height="50" relative="1" as="geometry">
            <mxPoint x="400" y="770" as="sourcePoint" />
            <mxPoint x="450" y="720" as="targetPoint" />
          </mxGeometry>
        </mxCell>
      </root>
    </mxGraphModel>
  </diagram>
</mxfile>
